<?xml version="1.0" encoding="utf-8"?>
<!-- Generator: Adobe Illustrator 22.0.1, SVG Export Plug-In . SVG Version: 6.00 Build 0)  -->
<svg version="1.1" id="Layer_1" xmlns="http://www.w3.org/2000/svg" xmlns:xlink="http://www.w3.org/1999/xlink" x="0px" y="0px"
	 viewBox="0 0 711.8 77.1" style="enable-background:new 0 0 711.8 77.1;" xml:space="preserve">
<style type="text/css">
	.st0{fill:#F15A29;}
	.st1{fill:#EE802C;}
</style>
<path class="st0" d="M29.1,67.1l-6.2-16.3c-0.1-0.2-0.2-0.2-0.3-0.2h-4.8c-0.2,0-0.3,0.1-0.3,0.3V67c0,0.2-0.1,0.3-0.2,0.5
	c-0.1,0.1-0.3,0.2-0.5,0.2h-5.2c-0.2,0-0.3-0.1-0.5-0.2C11.1,67.3,11,67.2,11,67V28.7c0-0.2,0.1-0.3,0.2-0.5
	c0.1-0.1,0.3-0.2,0.5-0.2h13.1c2.1,0,4.1,0.5,5.7,1.4c1.7,1,2.9,2.3,3.8,4.1c0.9,1.8,1.4,3.8,1.4,6c0,2.5-0.6,4.6-1.7,6.4
	c-1.1,1.8-2.7,3.1-4.6,3.8c-0.2,0.1-0.2,0.2-0.2,0.4l6.7,16.7c0,0.1,0.1,0.2,0.1,0.3c0,0.3-0.2,0.5-0.6,0.5h-5.4
	C29.5,67.6,29.2,67.5,29.1,67.1z M17.6,33.9v11.3c0,0.2,0.1,0.3,0.3,0.3h5.9c1.6,0,2.9-0.5,3.8-1.6c1-1.1,1.5-2.5,1.5-4.2
	c0-1.8-0.5-3.3-1.5-4.4c-1-1.1-2.3-1.6-3.8-1.6h-5.9C17.7,33.7,17.6,33.8,17.6,33.9z"/>
<path class="st0" d="M60.1,60c1.2-0.8,2.1-2,2.6-3.4c0.1-0.4,0.4-0.6,0.9-0.4l4.4,1.2c0.5,0.1,0.7,0.5,0.5,0.9
	c-0.8,2.7-2.3,4.9-4.6,6.5c-2.2,1.6-5,2.4-8.4,2.4c-3.6,0-6.5-0.9-8.8-2.7c-2.3-1.8-3.7-4.3-4.2-7.4c-0.6-2.6-0.9-5.5-0.9-9
	c0-3.3,0.1-5.9,0.4-7.7c0.4-3.4,1.8-6.1,4.2-8.1c2.4-2,5.4-3,9.1-3c4.2,0,7.4,1.1,9.8,3.4c2.3,2.2,3.6,5.3,4,9.3
	c0.2,2.3,0.3,5.1,0.3,8.2c0,0.5-0.2,0.7-0.7,0.7H48.7c-0.2,0-0.3,0.1-0.3,0.3c0.1,1.9,0.2,3.2,0.3,4c0.2,1.8,1,3.3,2.3,4.4
	c1.3,1.1,2.9,1.7,4.8,1.7C57.5,61.2,58.9,60.8,60.1,60z M50.9,36.9c-1.2,1.1-1.9,2.5-2.1,4.2c-0.2,1.5-0.3,2.9-0.3,4
	c0,0.2,0.1,0.3,0.3,0.3h13.3c0.2,0,0.3-0.1,0.3-0.3c-0.1-1.7-0.2-3-0.3-3.7c-0.2-1.8-1-3.3-2.2-4.4c-1.2-1.1-2.7-1.7-4.6-1.7
	C53.5,35.3,52,35.8,50.9,36.9z"/>
<path class="st0" d="M99.8,32.6c2,2.2,3,5.2,3,9v24.4c0,0.5-0.2,0.7-0.7,0.7h-5.5c-0.5,0-0.7-0.2-0.7-0.7V42.6c0-2.2-0.6-4-1.7-5.3
	c-1.1-1.3-2.7-2-4.6-2c-2,0-3.6,0.7-4.7,2c-1.2,1.3-1.8,3.1-1.8,5.3v23.3c0,0.5-0.2,0.7-0.7,0.7h-5.5c-0.5,0-0.7-0.2-0.7-0.7V30.6
	c0-0.5,0.2-0.7,0.7-0.7h5.5c0.5,0,0.7,0.2,0.7,0.7v2.2c0,0.1,0,0.2,0.1,0.3c0.1,0,0.2,0,0.3-0.2c1.9-2.4,4.6-3.5,8.2-3.5
	C95.1,29.4,97.8,30.4,99.8,32.6z"/>
<path class="st0" d="M133.8,32.6c2.4,2.2,3.7,5.2,3.7,8.8v24.5c0,0.5-0.2,0.7-0.7,0.7h-5.5c-0.5,0-0.7-0.2-0.7-0.7v-2.1
	c0-0.2-0.1-0.3-0.4-0.1c-2.2,2.4-5.3,3.5-9.2,3.5c-3.1,0-5.7-0.8-7.9-2.5c-2.2-1.7-3.3-4.5-3.3-8.3c0-4,1.3-7,3.8-9
	c2.6-2,6-3.1,10.5-3.1h6.1c0.2,0,0.3-0.1,0.3-0.3v-2c0-2.1-0.5-3.7-1.6-4.9c-1.1-1.2-2.6-1.8-4.7-1.8c-1.6,0-3,0.4-4,1.2
	c-1,0.8-1.7,1.9-1.9,3.2c0,0.4-0.3,0.7-0.8,0.7l-5.9-0.4c-0.2,0-0.4-0.1-0.5-0.2c-0.1-0.1-0.2-0.3-0.1-0.5c0.3-3,1.7-5.4,4.1-7.3
	c2.4-1.9,5.5-2.8,9.1-2.8C128.1,29.3,131.3,30.4,133.8,32.6z M128.1,59.5c1.6-1.2,2.3-2.8,2.3-4.8V50c0-0.2-0.1-0.3-0.3-0.3h-5.6
	c-2.4,0-4.3,0.5-5.7,1.6c-1.4,1.1-2.1,2.6-2.1,4.6c0,1.8,0.5,3.1,1.6,4c1.1,0.9,2.5,1.3,4.2,1.3C124.7,61.3,126.5,60.7,128.1,59.5z"
	/>
<path class="st0" d="M146.2,65.9V30.6c0-0.5,0.2-0.7,0.7-0.7h5.5c0.5,0,0.7,0.2,0.7,0.7v35.4c0,0.5-0.2,0.7-0.7,0.7h-5.5
	C146.5,66.7,146.2,66.4,146.2,65.9z"/>
<path class="st0" d="M164.2,64.3c-2.4-1.8-3.6-4.2-3.6-7.1v-0.7c0-0.5,0.2-0.7,0.7-0.7h5.2c0.5,0,0.7,0.2,0.7,0.6V57
	c0,1.3,0.6,2.5,1.8,3.4c1.2,0.9,2.8,1.4,4.7,1.4c1.8,0,3.3-0.5,4.4-1.4c1.1-0.9,1.7-2,1.7-3.4c0-1.1-0.3-1.9-1-2.6
	c-0.7-0.7-1.4-1.2-2.4-1.6c-0.9-0.4-2.3-0.9-4.2-1.6c-2.3-0.7-4.2-1.5-5.7-2.3c-1.6-0.8-2.9-1.9-4-3.4c-1.1-1.5-1.7-3.3-1.7-5.6
	c0-3.2,1.1-5.8,3.4-7.7c2.3-1.9,5.3-2.8,9.1-2.8c3.9,0,7,1,9.4,2.9c2.3,1.9,3.5,4.5,3.5,7.6v0.1c0,0.5-0.2,0.7-0.7,0.7h-5.1
	c-0.5,0-0.7-0.2-0.7-0.5v-0.5c0-1.4-0.6-2.6-1.7-3.5c-1.2-0.9-2.7-1.4-4.6-1.4c-1.8,0-3.2,0.4-4.3,1.3c-1.1,0.9-1.7,2-1.7,3.3
	c0,1,0.3,1.8,0.9,2.5c0.6,0.7,1.4,1.2,2.3,1.6s2.3,1,4.2,1.6c2.4,0.8,4.4,1.6,6,2.4c1.6,0.8,2.9,1.9,4.1,3.3
	c1.2,1.4,1.7,3.3,1.7,5.6c0,3.2-1.2,5.8-3.5,7.7c-2.4,1.9-5.5,2.8-9.5,2.8C169.7,67.1,166.6,66.2,164.2,64.3z"/>
<path class="st0" d="M196.1,64.3c-2.4-1.8-3.6-4.2-3.6-7.1v-0.7c0-0.5,0.2-0.7,0.7-0.7h5.2c0.5,0,0.7,0.2,0.7,0.6V57
	c0,1.3,0.6,2.5,1.8,3.4c1.2,0.9,2.8,1.4,4.7,1.4c1.8,0,3.3-0.5,4.4-1.4c1.1-0.9,1.7-2,1.7-3.4c0-1.1-0.3-1.9-1-2.6
	c-0.7-0.7-1.4-1.2-2.4-1.6c-0.9-0.4-2.3-0.9-4.2-1.6c-2.3-0.7-4.2-1.5-5.7-2.3c-1.6-0.8-2.9-1.9-4-3.4c-1.1-1.5-1.7-3.3-1.7-5.6
	c0-3.2,1.1-5.8,3.4-7.7c2.3-1.9,5.3-2.8,9.1-2.8c3.9,0,7,1,9.4,2.9c2.3,1.9,3.5,4.5,3.5,7.6v0.1c0,0.5-0.2,0.7-0.7,0.7h-5.1
	c-0.5,0-0.7-0.2-0.7-0.5v-0.5c0-1.4-0.6-2.6-1.7-3.5c-1.2-0.9-2.7-1.4-4.6-1.4c-1.8,0-3.2,0.4-4.3,1.3c-1.1,0.9-1.7,2-1.7,3.3
	c0,1,0.3,1.8,0.9,2.5c0.6,0.7,1.4,1.2,2.3,1.6s2.3,1,4.2,1.6c2.4,0.8,4.4,1.6,6,2.4c1.6,0.8,2.9,1.9,4.1,3.3
	c1.2,1.4,1.7,3.3,1.7,5.6c0,3.2-1.2,5.8-3.5,7.7c-2.4,1.9-5.5,2.8-9.5,2.8C201.6,67.1,198.4,66.2,196.1,64.3z"/>
<path class="st0" d="M247.9,32.6c2.4,2.2,3.7,5.2,3.7,8.8v24.5c0,0.5-0.2,0.7-0.7,0.7h-5.5c-0.5,0-0.7-0.2-0.7-0.7v-2.1
	c0-0.2-0.1-0.3-0.4-0.1c-2.2,2.4-5.3,3.5-9.2,3.5c-3.1,0-5.7-0.8-7.9-2.5c-2.2-1.7-3.3-4.5-3.3-8.3c0-4,1.3-7,3.8-9
	c2.6-2,6-3.1,10.5-3.1h6.1c0.2,0,0.3-0.1,0.3-0.3v-2c0-2.1-0.5-3.7-1.6-4.9c-1.1-1.2-2.6-1.8-4.7-1.8c-1.6,0-3,0.4-4,1.2
	c-1,0.8-1.7,1.9-1.9,3.2c0,0.4-0.3,0.7-0.8,0.7l-5.9-0.4c-0.2,0-0.4-0.1-0.5-0.2c-0.1-0.1-0.2-0.3-0.1-0.5c0.3-3,1.7-5.4,4.1-7.3
	c2.4-1.9,5.5-2.8,9.1-2.8C242.2,29.3,245.5,30.4,247.9,32.6z M242.3,59.5c1.6-1.2,2.3-2.8,2.3-4.8V50c0-0.2-0.1-0.3-0.3-0.3h-5.6
	c-2.4,0-4.3,0.5-5.7,1.6c-1.4,1.1-2.1,2.6-2.1,4.6c0,1.8,0.5,3.1,1.6,4c1.1,0.9,2.5,1.3,4.2,1.3C238.8,61.3,240.7,60.7,242.3,59.5z"
	/>
<path class="st0" d="M283.6,32.6c2,2.2,3,5.2,3,9v24.4c0,0.5-0.2,0.7-0.7,0.7h-5.5c-0.5,0-0.7-0.2-0.7-0.7V42.6c0-2.2-0.6-4-1.7-5.3
	c-1.1-1.3-2.7-2-4.6-2c-2,0-3.6,0.7-4.7,2c-1.2,1.3-1.8,3.1-1.8,5.3v23.3c0,0.5-0.2,0.7-0.7,0.7h-5.5c-0.5,0-0.7-0.2-0.7-0.7V30.6
	c0-0.5,0.2-0.7,0.7-0.7h5.5c0.5,0,0.7,0.2,0.7,0.7v2.2c0,0.1,0,0.2,0.1,0.3c0.1,0,0.2,0,0.3-0.2c1.9-2.4,4.6-3.5,8.2-3.5
	C278.9,29.4,281.6,30.4,283.6,32.6z"/>
<path class="st0" d="M299.3,64.3c-2.4-2-3.8-4.6-4.4-8c-0.3-2.2-0.5-4.9-0.5-8.2c0-2.8,0.2-5.5,0.5-8c0.5-3.3,2-5.9,4.4-7.9
	c2.4-2,5.4-3,9.1-3c3.6,0,6.6,0.9,9,2.8c2.5,1.9,3.9,4.3,4.4,7.2l0.3,1.7c0,0.4-0.2,0.7-0.7,0.8l-5.4,0.4h-0.1
	c-0.3,0-0.5-0.2-0.6-0.5l-0.1-0.3l-0.1-0.9c-0.2-1.5-1-2.8-2.2-3.8c-1.2-1-2.7-1.6-4.6-1.6c-1.8,0-3.3,0.6-4.5,1.7
	c-1.2,1.1-1.9,2.6-2.1,4.4c-0.2,2-0.4,4.3-0.4,6.9c0,2.8,0.1,5.2,0.4,7c0.2,1.8,0.9,3.3,2.1,4.4s2.6,1.6,4.5,1.6
	c1.9,0,3.4-0.5,4.6-1.6c1.2-1,1.9-2.3,2.1-3.9l0.1-0.7c0-0.5,0.3-0.7,0.8-0.7l5.4,0.4c0.5,0,0.7,0.3,0.7,0.8l-0.2,1.2
	c-0.4,3.1-1.8,5.6-4.3,7.5c-2.5,1.9-5.5,2.9-9.2,2.9C304.7,67.2,301.7,66.3,299.3,64.3z"/>
<path class="st0" d="M347.1,60c1.2-0.8,2.1-2,2.6-3.4c0.1-0.4,0.4-0.6,0.9-0.4l4.4,1.2c0.5,0.1,0.7,0.5,0.5,0.9
	c-0.8,2.7-2.3,4.9-4.6,6.5c-2.2,1.6-5,2.4-8.4,2.4c-3.6,0-6.5-0.9-8.8-2.7c-2.3-1.8-3.7-4.3-4.2-7.4c-0.6-2.6-0.9-5.5-0.9-9
	c0-3.3,0.1-5.9,0.4-7.7c0.4-3.4,1.8-6.1,4.2-8.1c2.4-2,5.4-3,9.1-3c4.2,0,7.4,1.1,9.8,3.4c2.3,2.2,3.6,5.3,4,9.3
	c0.2,2.3,0.3,5.1,0.3,8.2c0,0.5-0.2,0.7-0.7,0.7h-19.9c-0.2,0-0.3,0.1-0.3,0.3c0.1,1.9,0.2,3.2,0.3,4c0.2,1.8,1,3.3,2.3,4.4
	c1.3,1.1,2.9,1.7,4.8,1.7C344.5,61.2,345.9,60.8,347.1,60z M337.9,36.9c-1.2,1.1-1.9,2.5-2.1,4.2c-0.2,1.5-0.3,2.9-0.3,4
	c0,0.2,0.1,0.3,0.3,0.3h13.3c0.2,0,0.3-0.1,0.3-0.3c-0.1-1.7-0.2-3-0.3-3.7c-0.2-1.8-1-3.3-2.2-4.4c-1.2-1.1-2.7-1.7-4.6-1.7
	C340.5,35.3,339,35.8,337.9,36.9z"/>
<path class="st1" d="M379.9,66.6c-1.9-1-3.3-2.4-4.4-4.2c-1-1.8-1.6-3.9-1.6-6.2V39.4c0-2.3,0.5-4.4,1.6-6.2c1-1.8,2.5-3.2,4.4-4.2
	c1.9-1,4-1.5,6.5-1.5c2.5,0,4.6,0.5,6.5,1.4c1.9,1,3.3,2.3,4.4,4c1,1.7,1.6,3.7,1.6,5.9v1.3c0,0.2-0.1,0.3-0.2,0.5
	c-0.1,0.1-0.3,0.2-0.5,0.2h-5.2c-0.2,0-0.3-0.1-0.5-0.2c-0.1-0.1-0.2-0.3-0.2-0.5V39c0-1.7-0.5-3.1-1.6-4.2
	c-1.1-1.1-2.5-1.6-4.3-1.6c-1.7,0-3.1,0.6-4.2,1.7c-1.1,1.1-1.6,2.6-1.6,4.4v17.1c0,1.8,0.6,3.3,1.7,4.4c1.1,1.1,2.6,1.7,4.3,1.7
	c1.7,0,3.1-0.5,4.2-1.5c1-1,1.6-2.4,1.6-4.1v-4.5c0-0.2-0.1-0.3-0.3-0.3h-5.1c-0.2,0-0.3-0.1-0.5-0.2c-0.1-0.1-0.2-0.3-0.2-0.5v-4.1
	c0-0.2,0.1-0.3,0.2-0.5c0.1-0.1,0.3-0.2,0.5-0.2h11.3c0.2,0,0.3,0.1,0.5,0.2c0.1,0.1,0.2,0.3,0.2,0.5v8.8c0,3.7-1.1,6.7-3.4,8.8
	c-2.3,2.1-5.3,3.2-9,3.2C383.9,68.1,381.7,67.6,379.9,66.6z"/>
<path class="st1" d="M428.1,32.6c2.4,2.2,3.7,5.2,3.7,8.8v24.5c0,0.5-0.2,0.7-0.7,0.7h-5.5c-0.5,0-0.7-0.2-0.7-0.7v-2.1
	c0-0.2-0.1-0.3-0.4-0.1c-2.2,2.4-5.3,3.5-9.2,3.5c-3.1,0-5.7-0.8-7.9-2.5c-2.2-1.7-3.3-4.5-3.3-8.3c0-4,1.3-7,3.8-9
	c2.6-2,6-3.1,10.5-3.1h6.1c0.2,0,0.3-0.1,0.3-0.3v-2c0-2.1-0.5-3.7-1.6-4.9c-1.1-1.2-2.6-1.8-4.7-1.8c-1.6,0-3,0.4-4,1.2
	c-1,0.8-1.7,1.9-1.9,3.2c0,0.4-0.3,0.7-0.8,0.7l-5.9-0.4c-0.2,0-0.4-0.1-0.5-0.2c-0.1-0.1-0.2-0.3-0.1-0.5c0.3-3,1.7-5.4,4.1-7.3
	c2.4-1.9,5.5-2.8,9.1-2.8C422.4,29.3,425.6,30.4,428.1,32.6z M422.4,59.5c1.6-1.2,2.3-2.8,2.3-4.8V50c0-0.2-0.1-0.3-0.3-0.3h-5.6
	c-2.4,0-4.3,0.5-5.7,1.6c-1.4,1.1-2.1,2.6-2.1,4.6c0,1.8,0.5,3.1,1.6,4c1.1,0.9,2.5,1.3,4.2,1.3C419,61.3,420.9,60.7,422.4,59.5z"/>
<path class="st1" d="M482.4,32.6c1.9,2.2,2.8,5.2,2.8,9v24.3c0,0.5-0.2,0.7-0.7,0.7h-5.4c-0.5,0-0.7-0.2-0.7-0.7V42.7
	c0-2.3-0.5-4-1.6-5.3s-2.6-2-4.4-2c-1.9,0-3.4,0.6-4.5,1.9c-1.1,1.3-1.7,3-1.7,5.2v23.4c0,0.5-0.2,0.7-0.7,0.7h-5.4
	c-0.5,0-0.7-0.2-0.7-0.7V42.7c0-2.3-0.6-4-1.7-5.3c-1.1-1.3-2.6-2-4.4-2c-1.9,0-3.4,0.6-4.5,1.9c-1.1,1.3-1.7,3-1.7,5.2v23.4
	c0,0.5-0.2,0.7-0.7,0.7h-5.4c-0.5,0-0.7-0.2-0.7-0.7V30.6c0-0.5,0.2-0.7,0.7-0.7h5.4c0.5,0,0.7,0.2,0.7,0.7v2.2c0,0.1,0,0.2,0.1,0.2
	c0.1,0,0.2,0,0.3-0.1c2-2.4,4.7-3.5,8.2-3.5c2.1,0,4,0.4,5.5,1.3c1.5,0.9,2.7,2.1,3.5,3.8c0.1,0.2,0.3,0.2,0.4-0.1
	c1.1-1.7,2.4-3,4.2-3.8c1.7-0.8,3.5-1.2,5.5-1.2C478,29.4,480.6,30.4,482.4,32.6z"/>
<path class="st1" d="M510.1,60c1.2-0.8,2.1-2,2.6-3.4c0.1-0.4,0.4-0.6,0.9-0.4l4.4,1.2c0.5,0.1,0.7,0.5,0.5,0.9
	c-0.8,2.7-2.3,4.9-4.6,6.5c-2.2,1.6-5,2.4-8.4,2.4c-3.6,0-6.5-0.9-8.8-2.7c-2.3-1.8-3.7-4.3-4.2-7.4c-0.6-2.6-0.9-5.5-0.9-9
	c0-3.3,0.1-5.9,0.4-7.7c0.4-3.4,1.8-6.1,4.2-8.1c2.4-2,5.4-3,9.1-3c4.2,0,7.4,1.1,9.8,3.4c2.3,2.2,3.6,5.3,4,9.3
	c0.2,2.3,0.3,5.1,0.3,8.2c0,0.5-0.2,0.7-0.7,0.7h-19.9c-0.2,0-0.3,0.1-0.3,0.3c0.1,1.9,0.2,3.2,0.3,4c0.2,1.8,1,3.3,2.3,4.4
	c1.3,1.1,2.9,1.7,4.8,1.7C507.5,61.2,508.9,60.8,510.1,60z M500.9,36.9c-1.2,1.1-1.9,2.5-2.1,4.2c-0.2,1.5-0.3,2.9-0.3,4
	c0,0.2,0.1,0.3,0.3,0.3h13.3c0.2,0,0.3-0.1,0.3-0.3c-0.1-1.7-0.2-3-0.3-3.7c-0.2-1.8-1-3.3-2.2-4.4c-1.2-1.1-2.7-1.7-4.6-1.7
	C503.5,35.3,502.1,35.8,500.9,36.9z"/>
<path class="st1" d="M542.5,66.8c-1.9-0.9-3.3-2.1-4.4-3.8c-1-1.6-1.5-3.5-1.5-5.7v-1.5c0-0.2,0.1-0.3,0.2-0.5
	c0.1-0.1,0.3-0.2,0.5-0.2h5.1c0.2,0,0.3,0.1,0.5,0.2c0.1,0.1,0.2,0.3,0.2,0.5V57c0,1.6,0.6,2.9,1.7,4s2.6,1.5,4.5,1.5
	c1.7,0,3.1-0.5,4-1.4s1.4-2.1,1.4-3.6c0-1-0.3-1.9-0.8-2.6c-0.5-0.7-1.3-1.4-2.2-2s-2.5-1.5-4.5-2.5c-2.3-1.2-4.1-2.2-5.5-3.2
	c-1.4-1-2.6-2.2-3.5-3.6c-0.9-1.5-1.4-3.3-1.4-5.4c0-3.2,1.1-5.8,3.2-7.7c2.1-1.9,5-2.8,8.5-2.8c2.5,0,4.6,0.5,6.5,1.4
	c1.9,0.9,3.3,2.2,4.4,3.9c1,1.7,1.6,3.6,1.6,5.8v1.2c0,0.2-0.1,0.3-0.2,0.5c-0.1,0.1-0.3,0.2-0.5,0.2h-5.1c-0.2,0-0.3-0.1-0.5-0.2
	c-0.1-0.1-0.2-0.3-0.2-0.5v-1.1c0-1.6-0.5-3-1.6-4c-1.1-1.1-2.6-1.6-4.4-1.6c-1.6,0-2.9,0.4-3.8,1.3c-0.9,0.8-1.4,2-1.4,3.5
	c0,1,0.2,1.9,0.7,2.6c0.5,0.7,1.2,1.4,2.2,2c1,0.6,2.5,1.5,4.5,2.5c2.7,1.5,4.7,2.8,6,3.6c1.3,0.9,2.4,2,3.3,3.4
	c0.9,1.4,1.3,3.1,1.3,5.1c0,3.3-1.1,5.9-3.3,7.9c-2.2,2-5.2,3-8.9,3C546.5,68.1,544.4,67.7,542.5,66.8z"/>
<path class="st1" d="M587.9,29.9h5.5c0.5,0,0.7,0.2,0.7,0.7v35.4c0,0.5-0.2,0.7-0.7,0.7h-5.5c-0.5,0-0.7-0.2-0.7-0.7v-2.2
	c0-0.1,0-0.2-0.1-0.2c-0.1,0-0.2,0-0.3,0.1c-1.7,2.4-4.3,3.6-8,3.6c-3.3,0-6-1-8.1-2.9c-2.1-1.9-3.2-4.7-3.2-8.4V30.6
	c0-0.5,0.2-0.7,0.7-0.7h5.4c0.5,0,0.7,0.2,0.7,0.7V54c0,2.3,0.5,4,1.6,5.3c1.1,1.3,2.6,1.9,4.7,1.9c2,0,3.6-0.7,4.7-2
	c1.2-1.3,1.8-3.1,1.8-5.4V30.6C587.2,30.1,587.5,29.9,587.9,29.9z"/>
<path class="st1" d="M620.3,30.8c1.6,0.9,2.8,2.2,3.7,3.9c0.9,1.7,1.3,3.6,1.3,5.8c0,2.1-0.4,4-1.3,5.6c-0.9,1.6-2.1,2.9-3.7,3.8
	c-1.6,0.9-3.4,1.4-5.4,1.4h-6.5c-0.2,0-0.3,0.1-0.3,0.3V66c0,0.2-0.1,0.3-0.2,0.5c-0.1,0.1-0.3,0.2-0.5,0.2h-4.9
	c-0.2,0-0.3-0.1-0.5-0.2c-0.1-0.1-0.2-0.3-0.2-0.5V30.1c0-0.2,0.1-0.3,0.2-0.5c0.1-0.1,0.3-0.2,0.5-0.2h12.3
	C616.9,29.5,618.7,29.9,620.3,30.8z M617.7,44.8c0.9-1,1.4-2.4,1.4-4.2c0-1.8-0.5-3.2-1.4-4.2c-0.9-1.1-2.2-1.6-3.7-1.6h-5.6
	c-0.2,0-0.3,0.1-0.3,0.3v11c0,0.2,0.1,0.3,0.3,0.3h5.6C615.5,46.3,616.8,45.8,617.7,44.8z"/>
<path class="st1" d="M648.4,30.8c1.6,0.9,2.8,2.2,3.7,3.9c0.9,1.7,1.3,3.6,1.3,5.8c0,2.1-0.4,4-1.3,5.6c-0.9,1.6-2.1,2.9-3.7,3.8
	c-1.6,0.9-3.4,1.4-5.4,1.4h-6.5c-0.2,0-0.3,0.1-0.3,0.3V66c0,0.2-0.1,0.3-0.2,0.5c-0.1,0.1-0.3,0.2-0.5,0.2h-4.9
	c-0.2,0-0.3-0.1-0.5-0.2c-0.1-0.1-0.2-0.3-0.2-0.5V30.1c0-0.2,0.1-0.3,0.2-0.5c0.1-0.1,0.3-0.2,0.5-0.2h12.3
	C645,29.5,646.8,29.9,648.4,30.8z M645.8,44.8c0.9-1,1.4-2.4,1.4-4.2c0-1.8-0.5-3.2-1.4-4.2c-0.9-1.1-2.2-1.6-3.7-1.6h-5.6
	c-0.2,0-0.3,0.1-0.3,0.3v11c0,0.2,0.1,0.3,0.3,0.3h5.6C643.6,46.3,644.8,45.8,645.8,44.8z"/>
<path class="st1" d="M658.5,66.5c-0.1-0.1-0.2-0.3-0.2-0.5V30.1c0-0.2,0.1-0.3,0.2-0.5c0.1-0.1,0.3-0.2,0.5-0.2h4.9
	c0.2,0,0.3,0.1,0.5,0.2c0.1,0.1,0.2,0.3,0.2,0.5v30.9c0,0.2,0.1,0.3,0.3,0.3h14.6c0.2,0,0.3,0.1,0.5,0.2c0.1,0.1,0.2,0.3,0.2,0.5v4
	c0,0.2-0.1,0.3-0.2,0.5c-0.1,0.1-0.3,0.2-0.5,0.2h-20.4C658.8,66.6,658.6,66.6,658.5,66.5z"/>
<path class="st1" d="M689.9,66.7c-0.1-0.1-0.2-0.3-0.2-0.4V52.1l-0.1-0.3L680.6,31c0-0.1-0.1-0.2-0.1-0.3c0-0.3,0.2-0.4,0.5-0.4h5.1
	c0.4,0,0.6,0.2,0.7,0.5l5.7,14.2c0.1,0.2,0.2,0.2,0.3,0l5.6-14.2c0.1-0.3,0.3-0.5,0.7-0.5h5.2c0.2,0,0.4,0.1,0.5,0.2
	c0.1,0.1,0.1,0.3,0,0.5l-9.1,20.8l-0.1,0.3v14.2c0,0.2-0.1,0.3-0.2,0.4c-0.1,0.1-0.3,0.2-0.4,0.2h-4.8
	C690.2,66.9,690.1,66.9,689.9,66.7z"/>
<path class="st0" d="M150.4,1.7c1,7-4.3,14.1-4.9,16.1c0,0,0,0.1,0,0.1c-0.2,0.6-0.4,1.2-0.4,1.9c0,1.3,0.4,2.4,1.3,3.3
	c0.3,0.2,0.5,0.4,0.8,0.6c0-0.4,0-0.9,0-1.4c0.4-3.6,3.2-4.7,4.2-9.5c0,0,1.6,6.7,0.2,11.2c0.3-0.1,0.6-0.3,0.9-0.5
	c0.2-0.1,0.3-0.2,0.5-0.4c0,0,0,0,0,0c0,0,0-0.1,0.1-0.1c0.1-0.1,0.2-0.2,0.3-0.3c0.5-0.6,0.8-1.4,0.9-2.3c0-0.2,0.1-0.4,0.1-0.7
	C154.5,16.3,150.4,1.7,150.4,1.7z"/>
</svg>
