<?xml version="1.0" encoding="utf-8"?>
<!-- Generator: Adobe Illustrator 21.1.0, SVG Export Plug-In . SVG Version: 6.00 Build 0)  -->
<svg version="1.1" id="Layer_1" xmlns="http://www.w3.org/2000/svg" xmlns:xlink="http://www.w3.org/1999/xlink" x="0px" y="0px"
	 viewBox="0 0 400 80" style="enable-background:new 0 0 400 80;" xml:space="preserve">
<style type="text/css">
	.st0{fill:#F7F7F7;}
	.st1{fill:#FBAD1C;}
</style>
<path d="M397.2,66l-3.8-3.8l0-0.1l-6.2-3.8l-1,1.9c-1.4,2.5-2.8,4.2-4.2,5.1c-1.4,0.9-2.9,1.3-4.9,1.3c-1.8,0-3.4-0.3-4.7-1
	c-0.6-1.1-1-2.3-1.3-3.7c-0.3-1.3-0.5-2.8-0.6-4.4h25.4v-4.6c0-2.5-0.3-4.9-1-7c-0.7-2.2-1.7-4.2-3-5.9c-0.9-1.1-2-2-3.2-2.8
	c-0.3-0.4-0.6-0.9-0.9-1.3c-1.4-1.8-3.3-3.2-5.6-4.2c-2.3-1-5-1.5-8-1.5c-3,0-5.8,0.6-8.3,1.9c-2.4,1.3-4.5,2.9-6.2,5
	c-0.9,1.1-1.6,2.3-2.3,3.5c-0.7-1.2-1.7-2.3-2.9-3.2c-0.4-0.3-0.8-0.6-1.2-0.8c-0.7-1.2-1.7-2.3-2.9-3.3c-2.7-2.1-6.2-3.1-10.4-3.1
	c-3,0-5.9,0.6-8.5,1.9c-2.6,1.3-4.7,2.9-6.4,5c-1.3,1.6-2.4,3.3-3.2,5.1c-0.5-1.3-1.1-2.5-2-3.6c-0.9-1.1-1.9-2-3.2-2.7
	c-0.3-0.5-0.6-0.9-0.9-1.4c-2.2-2.8-5.5-4.2-9.8-4.2c-1.9,0-3.6,0.2-5.1,0.7c-1.5,0.5-2.8,1.1-3.9,1.8c-0.7,0.4-1.3,0.9-2,1.5v-1.7
	l-1.8-1.8l-15.6,1v6.4l0,0l4,4.1v0l1.9,0.1c0,0,0.1,0,0.1,0v22.8c0,0.5-0.1,1-0.2,1.2c0,0,0,0.1-0.1,0.1h-5.1v0h-2
	c-0.2,0-0.3,0-0.5,0c0-2.7,0-5.3,0.1-7.6c0.1-2.9,0.1-6.2,0.1-9.9c0-2.9-0.4-5.2-1.2-7.2c-0.8-2-2.1-3.6-3.7-4.8
	c-0.4-0.3-0.7-0.5-1.1-0.7c-0.8-1.4-1.8-2.5-3-3.4c-1.6-1.2-3.3-1.9-5.3-2.3c-1.7-0.3-3.8-0.5-6.1-0.5c-1.8,0-3.6,0.3-5.5,0.8
	c-1.8,0.6-3.4,1.3-4.7,2.1c-1.5,1-2.8,2.1-3.8,3.4c-0.5,0.7-1,1.4-1.2,2.2l-0.2-4.5l0,0l0,0l0,0h0l-4.1-4.1v0h0l0,0l0,0h-6.1
	l-0.6,1.4c-0.7-0.3-1.5-0.5-2.3-0.7c-1.7-0.4-3.4-0.6-5.1-0.6c-4.4,0-8.1,1.3-10.8,3.8c-1.1,1-2,2.2-2.6,3.4l-0.1-3.1h-0.1l-4-4
	l0-0.1h-0.1l0,0l0,0h-6l-0.6,1.4c-0.7-0.3-1.5-0.5-2.3-0.7c-1.7-0.4-3.4-0.6-5.1-0.6c-4.4,0-8.1,1.3-10.8,3.8
	c-2.8,2.6-4.2,5.8-4.2,9.5c0,2.1,0.5,4,1.3,5.7c0.9,1.6,2,2.9,3.3,4c0.4,0.3,0.8,0.6,1.2,0.9c0.8,1.2,1.7,2.3,2.8,3.2
	c1.2,1,2.7,1.8,4.3,2.5c1.6,0.7,3,1.2,4.3,1.6c1.5,0.4,2.8,0.9,4,1.4c0.1,0,0.2,0.1,0.3,0.1c0,0.1,0,0.3,0,0.4c0,2-0.7,2.8-1.3,3.3
	c-1,0.8-2.5,1.2-4.5,1.2c-1.4,0-2.7-0.3-3.8-0.9c-0.1-0.1-0.3-0.2-0.4-0.3c-0.3-0.4-0.5-0.9-0.8-1.3c-0.6-1.2-1-2.2-1.2-3.1
	l-0.3-1.6h-0.1l-4-3.9l0-0.2h-6.5l0.3,10.8l-1.2-0.1V36.7l0,0l-4.1-4.1v0l-0.4-0.4c0.5-0.3,1-0.7,1.5-1.1c3.2-3,3.6-6.3,3.8-8.2
	l0.1-0.5c0.1-0.5,0.1-1,0.2-1.5l0,0c0,0,0,0,0,0c0.1-0.5,0.2-0.9,0.3-1.4c0,0,0-0.1,0-0.1c0.3-0.8,0.7-1.8,1.2-2.4
	c0.9-1.1,1.7-1.4,1.9-2.3c0-0.1,0-0.2,0-0.3v0c0-0.1,0-0.1-0.1-0.1l-1.9-4.5l0,0c-0.2-0.6-1.4-0.7-2.7-0.4c-1.6,0.3-4,1.9-4,1.9l0,0
	c-0.9,0.7-1.9,1.6-2.8,2.9c-0.2,0.3-0.4,0.6-0.6,0.8c-0.3,0.3-0.7,0.6-1,0.6c-0.1,0-0.2,0-0.3-0.1c-0.1-1-0.1-2.2,0.1-3.3
	c0.1-0.3,0.1-0.6,0.2-0.9c0,0,0-0.1,0-0.1c0.3-1.1,0.8-2.5,1.5-3.8c0.3-0.5,0.4-0.8,0.3-1.1l0,0l0,0c0-0.1,0-0.1-0.1-0.2l-1.9-4.4
	c0,0,0,0,0,0c-0.3-0.8-2.1-0.5-3.6-0.1c0,0,0,0,0,0c-1.3,0.3-6.9,2.6-9,8.9c-1.1,3.2-1.3,5.7-0.9,8.1l0,0c0,0,0,0,0,0
	c0.1,0.6,0.3,1.3,0.5,1.9c0.6,2.1,1.8,5.5,4,9l0,0c0.1,0.2,0.2,0.4,0.3,0.6c0.4,0.6,0.8,1.2,1.3,1.6l-6.5,0.4v6.4l0.1,0l4,4v0.1
	l1.9,0.1c0.3,0,0.6,0.1,0.9,0.1v22.6c-0.1,0.9-0.5,1.4-1.3,1.4c-0.8,0-4.4,0-5.3,0c0-2.7,0-5.2,0.1-7.5c0.1-2.9,0.1-6.2,0.1-9.9
	c0-2.9-0.4-5.2-1.2-7.2c-0.8-2-2.1-3.6-3.7-4.8c-0.4-0.3-0.7-0.5-1.1-0.7c-0.8-1.4-1.8-2.5-3-3.4c-1.6-1.2-3.3-1.9-5.3-2.3
	c-1.7-0.3-3.8-0.5-6.1-0.5c-1.8,0-3.6,0.3-5.5,0.8c-1.8,0.6-3.4,1.3-4.7,2.1c-1.5,1-2.8,2.1-3.8,3.4c-1.1,1.5-1.7,3-1.7,4.7
	c0,1.5,0.4,3,1.3,4.2c0.2,0.3,0.5,0.7,0.9,1c1.2,1.3,3.2,3.5,4.6,4.5c-0.8,0.4-1.6,0.8-2.5,1.3c-1.3,0.7-2.3,1.6-3.1,2.5
	c-0.5,0.6-1,1.2-1.4,1.9v-7.5c0-4.3-1-7.8-3.1-10.4c-0.9-1.1-1.9-2-3.2-2.7c-0.3-0.5-0.6-0.9-0.9-1.4c-2.2-2.8-5.5-4.2-9.8-4.2
	c-1.9,0-3.6,0.2-5.1,0.7c-1.5,0.5-2.8,1.1-3.9,1.8c-0.7,0.4-1.3,0.9-2,1.5v-1.7l-1.8-1.8l-15.6,1V37c-0.2-0.4-0.5-0.7-0.8-1.1
	c-1.4-1.8-3.3-3.2-5.6-4.2c-2.3-1-5-1.5-8-1.5c-3,0-5.8,0.6-8.3,1.9c-2.4,1.3-4.5,2.9-6.2,5c-0.9,1.1-1.6,2.3-2.3,3.6
	c-0.8-1.3-1.8-2.3-3.1-3.1c-0.2-0.1-0.4-0.2-0.6-0.4c0-0.1,0-0.1-0.1-0.2c-0.8-1.5-2-2.6-3.4-3.6c-1.4-0.9-2.9-1.5-4.5-1.9
	c-1.6-0.4-3.3-0.6-5.1-0.6H1.8V37L2,37l-0.3,0L5.9,41v0.1l1.1,0.1v25.4c0,0.5-0.1,0.7-0.1,0.8c0,0-0.1,0.1-0.2,0.1
	c0,0-0.3,0.1-1.1,0.2c-0.8,0.1-1.4,0.2-1.8,0.2L1.8,68v5.9h0.1l-0.1,0l4,4l0.1-0.3V78h20.5v-5.9l0,0l0,0v0l0,0l-4-4v0l-1.3,0v-7.3
	c0.8,1,1.5,2.1,2.2,3.1c1.8,2.6,3.9,5.7,6.2,9.3l0.6,0.9l0,0l0.1,0.1l0,0h0l3.9,3.9L34,78h13.6V75c1.1,0.8,2.2,1.5,3.5,2.1
	c2.6,1.2,5.6,1.8,9,1.8c3.9,0,7.4-1,10.5-3.1c0.9-0.6,1.7-1.3,2.5-2h1.1V78l-0.1,0h46.5l-0.1,0h0.1v-2.5c0.1,0.1,0.2,0.2,0.3,0.3
	c2.2,2.1,5.1,3.2,8.5,3.2c3,0,5.7-0.6,7.9-1.7c1.3-0.7,2.6-1.6,3.8-2.6c0.5,0.9,1.2,1.6,2,2.3c1.6,1.2,3.6,1.9,6.1,1.9
	c1.4,0,2.6-0.2,3.7-0.5c0.9-0.3,2-0.6,3.1-1V78h0v0.1h28.9l-0.1,0h0.1l0.4-1.4c0.6,0.3,1.3,0.6,2.1,1c2.1,0.9,4.5,1.4,7,1.4
	c4.7,0,8.6-1.3,11.7-3.9c0.4-0.3,0.8-0.7,1.1-1.1l3.1,4l0,0h6.4l0.4-1.4c0.6,0.3,1.3,0.6,2.1,1c2.1,0.9,4.5,1.4,7,1.4
	c4.7,0,8.6-1.3,11.7-3.9c1.3-1.1,2.3-2.4,3.1-3.7c0.1,0.1,0.2,0.2,0.3,0.3c0.7,0.6,1.4,1.1,2.1,1.6c0.5,0.9,1.2,1.7,1.9,2.5
	c2.2,2.1,5.1,3.2,8.5,3.2c3,0,5.7-0.6,7.9-1.7c1.3-0.7,2.6-1.6,3.8-2.6c0.5,0.9,1.2,1.6,2,2.3c1.6,1.2,3.6,1.9,6.1,1.9
	c1.4,0,2.6-0.2,3.7-0.5c1-0.3,2.1-0.7,3.3-1.1l1.1-0.4V78h22.9v0h0.7v0h22.9v-5.7c0.1,0.2,0.2,0.3,0.4,0.5c3.5,4.2,8.5,6.3,14.6,6.3
	c3.4,0,6.7-1,9.8-3c2.8-1.8,5.1-4.2,6.9-7.1c0.8,0.9,1.7,1.7,2.7,2.4c0.2,0.3,0.4,0.6,0.6,0.9c1.7,2.1,3.9,3.8,6.5,5
	c2.6,1.2,5.6,1.8,9,1.8c3.9,0,7.4-1,10.5-3.1c3-2,5.4-4.7,7.1-8.1l0.9-1.7L397.2,66z M373,44c1.4-1.8,3.1-2.6,5.2-2.6
	c0.4,0,0.7,0,1,0.1c0.2,0.7,0.4,1.4,0.5,2.3c0.1,0.8,0.2,1.6,0.3,2.3h-8.2C372.1,45.3,372.5,44.6,373,44z M23.2,48.1
	c-0.7,0.7-1.4,1.1-2.3,1.4v-8h2.6c0.5,0,1,0,1.5,0.1c0.1,0.4,0.1,0.9,0.1,1.4C25.1,45.2,24.5,46.9,23.2,48.1z M40.1,67.7
	c-0.6-0.1-1-0.3-1.2-0.4c0,0-0.1,0-0.1,0c-1.5-2-2.8-3.8-3.9-5.2c-0.9-1.2-1.9-2.6-3.1-4.2c0.5-0.2,0.9-0.4,1.4-0.6
	c1-0.5,1.8-1,2.6-1.6c0.2,1.8,0.5,3.5,1,5.2c0.8,2.6,2,4.9,3.5,6.9C40.2,67.7,40.2,67.7,40.1,67.7z M54.1,44
	c1.4-1.8,3.1-2.6,5.2-2.6c0.4,0,0.7,0,1,0.1c0.2,0.7,0.4,1.4,0.5,2.3c0.1,0.8,0.2,1.6,0.3,2.3h-8.2C53.2,45.3,53.6,44.6,54.1,44z
	 M75.8,64.2l-1.3-2.1l0-0.1l-6.2-3.8l-1,1.9c-1.4,2.5-2.8,4.2-4.2,5.1c-1.4,0.9-2.9,1.3-4.9,1.3c-1.8,0-3.4-0.3-4.7-1
	c-0.6-1.1-1-2.3-1.3-3.7c-0.3-1.3-0.5-2.8-0.6-4.4h24.2V64.2z M99.7,65.3c0,0.5-0.1,1-0.2,1.2c0,0.1-0.1,0.2-0.5,0.3
	c-0.2,0.1-0.6,0.2-1.3,0.2c-0.7,0.1-1.4,0.1-2,0.2l-1.4,0.1c-1.5,0-2.7-0.1-3.1-0.2V47.5c0.2-0.2,0.4-0.6,0.7-1
	c0.4-0.5,0.9-1,1.6-1.5c0.7-0.5,1.6-1,2.6-1.3c0.9-0.3,1.9-0.5,3.1-0.5c0.1,0,0.2,0,0.3,0c0.2,0.7,0.3,1.5,0.3,2.4V65.3z
	 M135.8,63.3c-0.7,0.8-1.6,1.6-2.6,2.2c-1,0.7-2.2,1-3.6,1c0-0.1,0-0.1,0-0.2c0-1.3,0.3-2.3,0.8-3.2c0.6-1,1.4-1.8,2.5-2.5
	c0.9-0.6,2-1.1,3-1.6L135.8,63.3z M136,46c-0.9,0.4-2.2,0.9-4.1,1.6c0.1-0.5,0.2-1,0.2-1.3c0-1-0.1-2.1-0.4-3.3
	c-0.1-0.3-0.1-0.6-0.2-0.9c0.2-0.1,0.4-0.2,0.7-0.3c0.8-0.3,1.7-0.5,2.6-0.5c0.3,0,0.6,0,0.9,0.1c0,0.1,0.1,0.3,0.1,0.4
	c0.2,1.2,0.2,1.6,0.2,1.6V46z M240.6,44.6C240.6,44.6,240.6,44.6,240.6,44.6L240.6,44.6C240.6,44.6,240.6,44.6,240.6,44.6z
	 M227.3,66.6c-1,0.8-2.5,1.2-4.5,1.2c-1.4,0-2.7-0.3-3.8-0.9c-0.1-0.1-0.3-0.2-0.4-0.3c-0.3-0.4-0.5-0.9-0.8-1.3
	c-0.6-1.2-1-2.2-1.2-3.1l-0.3-1.6h0l-4.1-4.1l0,0h0l0,0l0,0H208c-0.3-0.3-0.6-0.7-1-1c-0.5-0.5-1.1-0.9-1.8-1.3
	c-0.6-1-1.4-1.9-2.3-2.8c-1.1-1-2.6-1.9-4.2-2.7c-1.6-0.8-3.3-1.4-5.1-2c-1.7-0.5-3.1-1-4.2-1.5c0-0.1,0-0.3,0-0.4
	c0-0.9,0.4-1.7,1.1-2.4c0.8-0.7,2.1-1.1,3.7-1.1c1.1,0,2.1,0.2,3,0.6c0.4,0.9,0.8,1.9,1,3l0.3,1.6h0l4.1,4l0,0.1h6.5l0,0h0.2
	c0.7,0.9,1.5,1.8,2.3,2.5c0.4,0.3,0.8,0.6,1.2,0.9c0.8,1.2,1.7,2.3,2.8,3.2c1.2,1,2.7,1.8,4.3,2.5c1.6,0.7,3,1.2,4.3,1.6
	c1.5,0.4,2.8,0.9,4,1.4c0.1,0,0.2,0.1,0.3,0.1c0,0.1,0,0.3,0,0.4C228.6,65.3,227.9,66.1,227.3,66.6z M244.1,52.2
	c-1.3,0.7-2.3,1.6-3.1,2.5c-0.5,0.5-0.9,1.1-1.3,1.8c-0.3-0.3-0.6-0.6-0.9-0.9c-0.5-0.5-1.1-0.9-1.8-1.3c-0.6-1-1.4-1.9-2.3-2.8
	c-1.1-1-2.6-1.9-4.2-2.7c-1.6-0.8-3.3-1.4-5.1-2c-1.7-0.5-3.1-1-4.2-1.5c0-0.1,0-0.3,0-0.4c0-0.9,0.4-1.7,1.1-2.4
	c0.8-0.7,2.1-1.1,3.7-1.1c1.1,0,2.1,0.2,3,0.6c0.4,0.9,0.8,1.9,1,3l0.3,1.6h0l4,4l0,0.1h6.5l-0.3-5.4c0,0.1,0,0.1,0.1,0.2
	c1.2,2.8,4.3,4.8,5.5,5.5C245.5,51.5,244.8,51.8,244.1,52.2z M260.3,63.3c-0.7,0.8-1.6,1.6-2.6,2.2c-1,0.7-2.2,1-3.6,1
	c0-0.1,0-0.1,0-0.2c0-1.3,0.3-2.3,0.8-3.2c0.6-1,1.4-1.8,2.5-2.5c0.9-0.6,2-1.1,3-1.6L260.3,63.3z M260.4,46
	c-0.9,0.4-2.2,0.9-4.1,1.6c0.1-0.5,0.2-1,0.2-1.3c0-1-0.1-2.1-0.4-3.3c-0.1-0.3-0.1-0.6-0.2-0.9c0.2-0.1,0.4-0.2,0.7-0.3
	c0.8-0.3,1.7-0.5,2.6-0.5c0.3,0,0.6,0,0.9,0.1c0,0.1,0.1,0.3,0.1,0.4c0.2,1.2,0.2,1.6,0.2,1.6V46z M307.5,65.3c0,0.5-0.1,1-0.2,1.2
	c0,0.1-0.1,0.2-0.5,0.3c-0.2,0.1-0.6,0.2-1.3,0.2c-0.7,0.1-1.4,0.1-2,0.2l-1.5,0.1c-1.5,0-2.7-0.1-3-0.2V47.5c0.2-0.2,0.4-0.6,0.7-1
	c0.4-0.5,0.9-1,1.6-1.5c0.7-0.5,1.6-1,2.6-1.3c0.9-0.3,1.9-0.5,3.1-0.5c0.1,0,0.2,0,0.3,0c0.2,0.7,0.3,1.5,0.3,2.4V65.3z
	 M351.8,58.3l-1.1,1.8c-1.3,2.2-2.7,3.9-4.2,4.9c-1.4,1-3,1.5-5.1,1.5c-1.2,0-2.3-0.3-3.4-0.7c-1.4-2.5-2.1-5.7-2.1-9.6
	c0-2.9,0.3-5.4,0.8-7.4c0.5-2,1.2-3.5,2-4.6c0.9-1.2,1.7-1.9,2.5-2.3c0.2-0.1,0.5-0.2,0.7-0.2c-0.1,0.6-0.1,1.2-0.1,1.8
	c0,1.1,0.3,2.6,1.9,4.1c0.7,0.6,1.4,1,2.3,1.3c0.2,0.9,0.7,1.8,1.7,2.8c1.2,1.1,2.9,1.7,5,1.7c0.7,0,1.3-0.1,1.8-0.2
	c0.1,2.6,0.5,5.2,1.2,7.5c0,0.1,0,0.1,0.1,0.2L351.8,58.3z"/>
<path class="st0" d="M41.5,71.8H31.1c-2.3-3.6-4.4-6.7-6.3-9.4c-1.9-2.6-3.9-5.4-6.1-8.2h-4v12.3c0,0.6,0.1,1.2,0.3,1.7
	c0.2,0.5,0.6,0.9,1.3,1.1c0.3,0.1,0.9,0.2,1.7,0.4s1.5,0.2,2.1,0.2v1.9H3.8v-1.9c0.4,0,1.1-0.1,1.9-0.2c0.8-0.1,1.4-0.2,1.7-0.4
	c0.5-0.2,0.9-0.6,1.2-1c0.2-0.5,0.4-1,0.4-1.7v-28c0-0.6-0.1-1.2-0.3-1.7c-0.2-0.5-0.6-0.9-1.3-1.1c-0.5-0.2-1-0.3-1.8-0.4
	c-0.7-0.1-1.3-0.2-1.9-0.3v-1.9h17.9c1.6,0,3.2,0.2,4.6,0.5c1.4,0.3,2.7,0.9,3.9,1.6c1.1,0.7,2,1.7,2.7,2.9c0.7,1.2,1,2.6,1,4.2
	c0,1.5-0.2,2.8-0.7,4c-0.5,1.1-1.1,2.1-2,3c-0.8,0.8-1.8,1.5-2.9,2c-1.1,0.6-2.4,1.1-3.8,1.5c1.9,2.5,3.5,4.7,4.8,6.4
	c1.3,1.7,2.8,3.8,4.7,6.3c0.8,1.1,1.5,1.9,2.2,2.4c0.6,0.5,1.3,0.9,1.9,1.3c0.5,0.2,1.1,0.4,1.8,0.5c0.7,0.1,1.3,0.2,1.8,0.2V71.8z
	 M27.2,43c0-2.3-0.7-4.2-2-5.6c-1.3-1.4-3.2-2.1-5.7-2.1h-4.6V52h3.6c2.5,0,4.6-0.8,6.3-2.4C26.3,47.9,27.2,45.8,27.2,43z"/>
<path class="st0" d="M71.8,62.8c-1.6,3.1-3.8,5.5-6.5,7.3c-2.7,1.8-5.8,2.7-9.3,2.7c-3.1,0-5.8-0.5-8.1-1.6
	c-2.3-1.1-4.2-2.6-5.8-4.4c-1.5-1.9-2.6-4.1-3.4-6.5c-0.7-2.5-1.1-5.1-1.1-7.9c0-2.5,0.4-4.9,1.2-7.3c0.8-2.4,2-4.6,3.5-6.5
	c1.5-1.8,3.3-3.3,5.5-4.5c2.2-1.1,4.7-1.7,7.4-1.7c2.8,0,5.2,0.4,7.2,1.3c2,0.9,3.6,2.1,4.9,3.6c1.2,1.5,2.1,3.2,2.7,5.1
	c0.6,2,0.9,4.1,0.9,6.4v2.6H45.4c0,2.5,0.2,4.8,0.7,6.9c0.5,2.1,1.2,3.9,2.3,5.4c1,1.5,2.3,2.7,4,3.6c1.6,0.9,3.6,1.3,5.8,1.3
	c2.3,0,4.3-0.5,6-1.6c1.7-1.1,3.3-3,4.9-5.9L71.8,62.8z M63.2,48.1c0-1.5-0.1-3-0.4-4.7c-0.2-1.7-0.6-3-1.2-4.2
	c-0.6-1.2-1.4-2.2-2.5-2.9c-1-0.8-2.4-1.1-4-1.1c-2.7,0-5,1.1-6.8,3.4c-1.8,2.3-2.8,5.4-2.9,9.5H63.2z"/>
<path class="st0" d="M114.6,71.8H95.9v-2.6c0.6-0.1,1.3-0.1,2-0.2c0.7-0.1,1.3-0.2,1.8-0.3c0.7-0.2,1.3-0.6,1.6-1.2
	c0.4-0.6,0.5-1.3,0.5-2.3V45.5c0-2.7-0.6-4.8-1.9-6.3S96.9,37,95.1,37c-1.4,0-2.6,0.2-3.8,0.6c-1.1,0.4-2.2,1-3,1.6
	c-0.9,0.6-1.5,1.2-2.1,1.9c-0.5,0.7-0.9,1.2-1.1,1.7v22.1c0,0.9,0.2,1.6,0.5,2.2c0.4,0.6,0.9,1,1.6,1.3c0.5,0.3,1.1,0.5,1.8,0.6
	c0.6,0.1,1.3,0.2,2,0.3v2.6H72.2v-2.6c0.6-0.1,1.2-0.1,1.9-0.2c0.6-0.1,1.2-0.2,1.7-0.3c0.7-0.2,1.3-0.6,1.6-1.2
	c0.3-0.6,0.5-1.3,0.5-2.3V41.6c0-0.9-0.2-1.7-0.6-2.4c-0.4-0.7-0.9-1.3-1.6-1.8c-0.5-0.3-1.1-0.5-1.8-0.7c-0.7-0.1-1.4-0.2-2.2-0.3
	v-2.6l12.8-0.9l0.5,0.5v5.4h0.2c0.6-0.6,1.4-1.4,2.3-2.2c0.9-0.9,1.8-1.6,2.7-2.1c1-0.6,2.1-1.1,3.4-1.6c1.3-0.4,2.8-0.6,4.5-0.6
	c3.7,0,6.4,1.2,8.2,3.4c1.8,2.3,2.7,5.4,2.7,9.2v20c0,0.9,0.2,1.6,0.5,2.2c0.3,0.6,0.8,1,1.6,1.3c0.6,0.3,1.2,0.4,1.6,0.5
	c0.5,0.1,1.1,0.2,1.9,0.2V71.8z"/>
<path class="st0" d="M151.7,71.1c-1.2,0.4-2.3,0.8-3.2,1.1c-0.9,0.3-2,0.4-3.1,0.4c-2,0-3.6-0.5-4.9-1.4s-2-2.3-2.3-4.2h-0.2
	c-1.7,1.9-3.5,3.3-5.4,4.3c-1.9,1-4.3,1.5-7,1.5c-2.9,0-5.3-0.9-7.1-2.7c-1.9-1.8-2.8-4.1-2.8-6.9c0-1.5,0.2-2.8,0.6-4
	c0.4-1.2,1-2.2,1.9-3.2c0.6-0.8,1.5-1.5,2.6-2.1c1.1-0.6,2.1-1.1,3-1.5c1.2-0.4,3.5-1.3,7.1-2.5c3.6-1.2,6-2.1,7.2-2.8v-3.9
	c0-0.3-0.1-1-0.2-1.9c-0.1-1-0.4-1.9-0.9-2.7c-0.5-1-1.3-1.8-2.2-2.5c-0.9-0.7-2.3-1.1-4-1.1c-1.2,0-2.3,0.2-3.3,0.6
	c-1,0.4-1.7,0.8-2.2,1.3c0,0.5,0.1,1.3,0.4,2.3c0.2,1,0.4,1.9,0.4,2.8c0,0.9-0.4,1.7-1.2,2.5c-0.8,0.8-2,1.1-3.4,1.1
	c-1.3,0-2.3-0.5-2.9-1.4c-0.6-0.9-0.9-2-0.9-3.1c0-1.2,0.4-2.3,1.3-3.4c0.8-1.1,1.9-2.1,3.3-2.9c1.2-0.7,2.6-1.3,4.2-1.9
	c1.7-0.5,3.3-0.8,4.9-0.8c2.2,0,4.1,0.1,5.7,0.4s3.1,0.9,4.4,1.9c1.3,1,2.3,2.3,3,3.9c0.7,1.7,1,3.8,1,6.4c0,3.7,0,7-0.1,9.9
	c-0.1,2.9-0.1,6-0.1,9.4c0,1,0.2,1.8,0.5,2.4c0.3,0.6,0.9,1.1,1.6,1.5c0.4,0.2,1,0.4,1.9,0.4c0.8,0,1.7,0,2.6,0V71.1z M138.1,50.6
	c-2.2,0.7-4.1,1.3-5.8,1.9c-1.7,0.6-3.2,1.4-4.6,2.3c-1.3,0.9-2.3,1.9-3.1,3.1c-0.8,1.2-1.1,2.7-1.1,4.3c0,2.2,0.6,3.7,1.7,4.8
	c1.1,1,2.6,1.5,4.3,1.5c1.8,0,3.5-0.4,4.9-1.3c1.4-0.9,2.6-2,3.5-3.2L138.1,50.6z"/>
<path class="st0" d="M172.8,71.8h-18.6v-2.6c0.6-0.1,1.2-0.1,1.9-0.2c0.6-0.1,1.2-0.2,1.7-0.3c0.7-0.2,1.3-0.6,1.6-1.2
	c0.4-0.6,0.5-1.3,0.5-2.3V41.6c0-0.8-0.2-1.6-0.6-2.3c-0.4-0.7-0.9-1.3-1.6-1.7c-0.5-0.3-1.2-0.6-2.1-0.8c-0.9-0.2-1.8-0.4-2.6-0.4
	v-2.6l13.6-0.9l0.5,0.5v31.3c0,0.9,0.2,1.7,0.5,2.3c0.3,0.6,0.9,1,1.6,1.3c0.6,0.2,1.1,0.4,1.7,0.6c0.5,0.1,1.1,0.2,1.8,0.3V71.8z"
	/>
<path class="st0" d="M201.6,53c1.1,0.9,1.9,2,2.5,3.2c0.6,1.2,0.9,2.7,0.9,4.5c0,3.6-1.3,6.5-4,8.7c-2.7,2.3-6.1,3.4-10.3,3.4
	c-2.2,0-4.3-0.4-6.2-1.2c-1.9-0.8-3.2-1.5-4-2.2l-0.8,2.5h-2.9l-0.4-13.4h2.7c0.2,1,0.6,2.2,1.3,3.6c0.7,1.4,1.5,2.6,2.5,3.7
	c1,1.1,2.2,2.1,3.6,2.9c1.4,0.8,3,1.2,4.8,1.2c2.5,0,4.4-0.6,5.8-1.7c1.4-1.1,2-2.8,2-4.9c0-1.1-0.2-2-0.6-2.8
	c-0.4-0.8-1.1-1.5-1.9-2.1c-0.9-0.6-1.9-1.1-3.2-1.6c-1.2-0.5-2.6-1-4.2-1.4c-1.2-0.4-2.6-0.9-4.1-1.5c-1.5-0.6-2.8-1.4-3.8-2.2
	c-1.1-0.9-2.1-2-2.8-3.4c-0.7-1.3-1.1-2.9-1.1-4.7c0-3.1,1.2-5.8,3.5-8c2.3-2.2,5.5-3.3,9.4-3.3c1.5,0,3,0.2,4.6,0.6
	c1.6,0.4,2.9,0.9,3.8,1.4l0.9-2h2.8l0.6,12.4h-2.7c-0.5-2.8-1.7-5-3.5-6.8c-1.8-1.7-4-2.6-6.6-2.6c-2.1,0-3.8,0.5-5,1.6
	c-1.2,1.1-1.8,2.4-1.8,3.9c0,1.2,0.2,2.1,0.6,2.9c0.4,0.8,1,1.4,1.8,2c0.8,0.5,1.8,1,2.9,1.5c1.2,0.5,2.6,1,4.4,1.5
	c1.7,0.5,3.3,1.2,4.9,1.9C199.3,51.3,200.6,52.1,201.6,53z"/>
<path class="st0" d="M233.3,53c1.1,0.9,1.9,2,2.5,3.2c0.6,1.2,0.9,2.7,0.9,4.5c0,3.6-1.3,6.5-4,8.7c-2.7,2.3-6.1,3.4-10.3,3.4
	c-2.2,0-4.3-0.4-6.2-1.2c-1.9-0.8-3.2-1.5-4-2.2l-0.8,2.5h-2.9L208,58.6h2.7c0.2,1,0.6,2.2,1.3,3.6c0.7,1.4,1.5,2.6,2.5,3.7
	c1,1.1,2.2,2.1,3.6,2.9c1.4,0.8,3,1.2,4.8,1.2c2.5,0,4.4-0.6,5.8-1.7c1.4-1.1,2-2.8,2-4.9c0-1.1-0.2-2-0.6-2.8
	c-0.4-0.8-1.1-1.5-1.9-2.1c-0.9-0.6-1.9-1.1-3.2-1.6c-1.2-0.5-2.6-1-4.2-1.4c-1.2-0.4-2.6-0.9-4.1-1.5c-1.5-0.6-2.8-1.4-3.8-2.2
	c-1.1-0.9-2.1-2-2.8-3.4c-0.7-1.3-1.1-2.9-1.1-4.7c0-3.1,1.2-5.8,3.5-8c2.3-2.2,5.5-3.3,9.4-3.3c1.5,0,3,0.2,4.6,0.6
	c1.6,0.4,2.9,0.9,3.8,1.4l0.9-2h2.8l0.6,12.4H232c-0.5-2.8-1.7-5-3.5-6.8c-1.8-1.7-4-2.6-6.6-2.6c-2.1,0-3.8,0.5-5,1.6
	c-1.2,1.1-1.8,2.4-1.8,3.9c0,1.2,0.2,2.1,0.6,2.9c0.4,0.8,1,1.4,1.8,2c0.8,0.5,1.8,1,2.9,1.5c1.2,0.5,2.6,1,4.4,1.5
	c1.7,0.5,3.3,1.2,4.9,1.9C231.1,51.3,232.3,52.1,233.3,53z"/>
<path class="st0" d="M276.1,71.1c-1.2,0.4-2.3,0.8-3.2,1.1c-0.9,0.3-2,0.4-3.1,0.4c-2,0-3.6-0.5-4.9-1.4c-1.2-0.9-2-2.3-2.3-4.2
	h-0.2c-1.7,1.9-3.5,3.3-5.4,4.3c-1.9,1-4.3,1.5-7,1.5c-2.9,0-5.3-0.9-7.1-2.7c-1.9-1.8-2.8-4.1-2.8-6.9c0-1.5,0.2-2.8,0.6-4
	c0.4-1.2,1-2.2,1.9-3.2c0.6-0.8,1.5-1.5,2.6-2.1c1.1-0.6,2.1-1.1,3-1.5c1.2-0.4,3.5-1.3,7.1-2.5c3.6-1.2,6-2.1,7.2-2.8v-3.9
	c0-0.3-0.1-1-0.2-1.9s-0.4-1.9-0.9-2.7c-0.5-1-1.3-1.8-2.2-2.5c-0.9-0.7-2.3-1.1-4-1.1c-1.2,0-2.3,0.2-3.3,0.6
	c-1,0.4-1.7,0.8-2.2,1.3c0,0.5,0.1,1.3,0.4,2.3c0.2,1,0.4,1.9,0.4,2.8c0,0.9-0.4,1.7-1.2,2.5c-0.8,0.8-2,1.1-3.4,1.1
	c-1.3,0-2.3-0.5-2.9-1.4c-0.6-0.9-0.9-2-0.9-3.1c0-1.2,0.4-2.3,1.3-3.4c0.8-1.1,1.9-2.1,3.3-2.9c1.2-0.7,2.6-1.3,4.2-1.9
	s3.3-0.8,4.9-0.8c2.2,0,4.1,0.1,5.7,0.4c1.6,0.3,3.1,0.9,4.4,1.9c1.3,1,2.3,2.3,3,3.9c0.7,1.7,1,3.8,1,6.4c0,3.7,0,7-0.1,9.9
	s-0.1,6-0.1,9.4c0,1,0.2,1.8,0.5,2.4c0.3,0.6,0.9,1.1,1.6,1.5c0.4,0.2,1,0.4,1.9,0.4c0.8,0,1.7,0,2.6,0V71.1z M262.5,50.6
	c-2.2,0.7-4.1,1.3-5.8,1.9c-1.7,0.6-3.2,1.4-4.6,2.3c-1.3,0.9-2.3,1.9-3.1,3.1c-0.8,1.2-1.1,2.7-1.1,4.3c0,2.2,0.6,3.7,1.7,4.8
	c1.1,1,2.6,1.5,4.3,1.5c1.8,0,3.5-0.4,4.9-1.3c1.4-0.9,2.6-2,3.5-3.2L262.5,50.6z"/>
<path class="st0" d="M322.4,71.8h-18.8v-2.6c0.6-0.1,1.3-0.1,2-0.2c0.7-0.1,1.3-0.2,1.8-0.3c0.7-0.2,1.3-0.6,1.6-1.2
	c0.4-0.6,0.5-1.3,0.5-2.3V45.5c0-2.7-0.6-4.8-1.9-6.3s-2.9-2.2-4.7-2.2c-1.4,0-2.6,0.2-3.8,0.6c-1.1,0.4-2.2,1-3,1.6
	c-0.9,0.6-1.5,1.2-2.1,1.9c-0.5,0.7-0.9,1.2-1.1,1.7v22.1c0,0.9,0.2,1.6,0.5,2.2c0.4,0.6,0.9,1,1.6,1.3c0.5,0.3,1.1,0.5,1.8,0.6
	c0.6,0.1,1.3,0.2,2,0.3v2.6H280v-2.6c0.6-0.1,1.2-0.1,1.9-0.2c0.6-0.1,1.2-0.2,1.7-0.3c0.7-0.2,1.3-0.6,1.6-1.2
	c0.3-0.6,0.5-1.3,0.5-2.3V41.6c0-0.9-0.2-1.7-0.6-2.4c-0.4-0.7-0.9-1.3-1.6-1.8c-0.5-0.3-1.1-0.5-1.8-0.7c-0.7-0.1-1.4-0.2-2.2-0.3
	v-2.6l12.8-0.9l0.5,0.5v5.4h0.2c0.6-0.6,1.4-1.4,2.3-2.2c0.9-0.9,1.8-1.6,2.7-2.1c1-0.6,2.1-1.1,3.4-1.6c1.3-0.4,2.8-0.6,4.5-0.6
	c3.7,0,6.4,1.2,8.2,3.4c1.8,2.3,2.7,5.4,2.7,9.2v20c0,0.9,0.2,1.6,0.5,2.2c0.3,0.6,0.8,1,1.6,1.3c0.6,0.3,1.2,0.4,1.6,0.5
	c0.5,0.1,1.1,0.2,1.9,0.2V71.8z"/>
<path class="st0" d="M339.4,72.9c-5.6,0-9.9-1.8-13.1-5.5c-3.1-3.7-4.7-8.6-4.7-14.9c0-2.7,0.4-5.2,1.3-7.6c0.8-2.4,2.1-4.5,3.7-6.4
	c1.5-1.8,3.5-3.3,5.8-4.5c2.3-1.1,4.8-1.7,7.6-1.7c3.8,0,6.8,0.9,9.2,2.7c2.4,1.8,3.5,4.3,3.5,7.4c0,1.3-0.3,2.5-0.9,3.4
	c-0.6,1-1.6,1.5-3.1,1.5c-1.5,0-2.7-0.4-3.6-1.2c-0.8-0.8-1.3-1.6-1.3-2.6c0-1.2,0.2-2.4,0.5-3.6c0.3-1.2,0.5-2.1,0.5-2.7
	c-0.5-0.8-1.2-1.3-2.1-1.6c-0.9-0.3-1.9-0.4-3-0.4c-1.2,0-2.4,0.3-3.6,0.8c-1.1,0.5-2.2,1.5-3.3,2.9c-1,1.3-1.7,3.1-2.3,5.3
	c-0.6,2.2-0.9,4.8-0.9,7.9c0,4.8,1.1,8.8,3.2,11.8c2.1,3.1,4.9,4.6,8.4,4.6c2.5,0,4.6-0.6,6.3-1.8c1.7-1.2,3.3-3.1,4.7-5.5l2.5,1.6
	c-1.7,3.1-4,5.5-6.8,7.3C345.3,72,342.4,72.9,339.4,72.9z"/>
<path class="st0" d="M390.7,62.8c-1.6,3.1-3.8,5.5-6.5,7.3c-2.7,1.8-5.8,2.7-9.3,2.7c-3.1,0-5.8-0.5-8.1-1.6
	c-2.3-1.1-4.2-2.6-5.8-4.4s-2.6-4.1-3.4-6.5c-0.7-2.5-1.1-5.1-1.1-7.9c0-2.5,0.4-4.9,1.2-7.3c0.8-2.4,2-4.6,3.5-6.5
	c1.5-1.8,3.3-3.3,5.5-4.5c2.2-1.1,4.7-1.7,7.4-1.7c2.8,0,5.2,0.4,7.2,1.3c2,0.9,3.6,2.1,4.9,3.6c1.2,1.5,2.1,3.2,2.7,5.1
	c0.6,2,0.9,4.1,0.9,6.4v2.6h-25.5c0,2.5,0.2,4.8,0.7,6.9c0.5,2.1,1.2,3.9,2.3,5.4c1,1.5,2.3,2.7,4,3.6c1.6,0.9,3.6,1.3,5.8,1.3
	c2.3,0,4.3-0.5,6-1.6c1.7-1.1,3.3-3,4.9-5.9L390.7,62.8z M382.1,48.1c0-1.5-0.1-3-0.4-4.7c-0.2-1.7-0.6-3-1.2-4.2
	c-0.6-1.2-1.4-2.2-2.5-2.9c-1-0.8-2.4-1.1-4-1.1c-2.7,0-5,1.1-6.8,3.4c-1.8,2.3-2.8,5.4-2.9,9.5H382.1z"/>
<path class="st1" d="M172.2,11.7c-1.7,0.8-3.1,1.9-4.6,4.2c-0.7,1.1-1.5,1.6-2.1,1.8c-0.2,0-0.3,0.1-0.5,0.1c-1.2,0-2.3-0.9-3.2-2.6
	c-0.9-1.7-1.3-3.6-1.3-5.8c0-2.3,0.5-4.3,1.4-5.9c0.1-0.2,0.2-0.4,0.3-0.6c-0.8,0.4-1.6,1.2-2.2,2.3c-1.1,1.8-1.7,3.9-1.7,6.3
	c0,2.3,0.5,4.3,1.6,6.1c0.3,0.4,0.5,0.8,0.8,1.1c0,0.1,0,0.1,0,0.2c0,0-0.1,0.1-0.1,0c0,0,0,0-0.1,0c-0.7-0.4-1.4-1.3-1.9-2.6
	c-0.7-1.8-1-3.8-0.9-6.1c0.1-2,0.5-3.8,1.2-5.4c-0.1,0-0.2,0.1-0.2,0.1c-0.5,0.5-1,1.1-1.5,2c-0.9,1.8-1.3,3.9-1.1,6.3
	c0.2,2.3,0.9,4.3,2.1,6c0.3,0.4,0.6,0.8,1,1.1c0,0,0.1,0.1,0,0.2c0,0-0.1,0.1-0.1,0.1c0,0,0,0,0,0c-0.8-0.3-1.6-1.1-2.3-2.4
	c-0.9-1.7-1.5-3.7-1.7-5.9c-0.1-1.5,0-3,0.2-4.3c-0.1,0.1-0.1,0.2-0.2,0.3c-0.9,1.8-1.2,3.9-1,6.2c0.2,2.3,0.9,4.3,2.1,6
	c0.3,0.4,0.6,0.8,0.9,1.1c0,0,0.1,0.1,0,0.2c0,0-0.1,0.1-0.1,0.1c0,0,0,0,0,0c-0.8-0.3-1.6-1.1-2.2-2.4c-0.8-1.5-1.3-3.2-1.6-5
	c0,0.4-0.1,0.8-0.1,1.2c0,2.9,0.8,5.5,2.4,7.8c1.5,2,3.1,3.2,5.1,3.5c0.3,0.1,0.8,0.1,1.4,0c0,0,0.1,0,0.1,0c0.3,0,0.6-0.1,0.9-0.1
	c6-1.1,7-7,7.2-9.3C170.5,13.2,172.2,11.7,172.2,11.7z"/>
</svg>
