<?xml version="1.0" encoding="utf-8"?>
<!-- Generator: Adobe Illustrator 22.0.1, SVG Export Plug-In . SVG Version: 6.00 Build 0)  -->
<svg version="1.1" id="Layer_1" xmlns="http://www.w3.org/2000/svg" xmlns:xlink="http://www.w3.org/1999/xlink" x="0px" y="0px"
	 viewBox="0 0 50 50" style="enable-background:new 0 0 50 50;" xml:space="preserve">
<style type="text/css">
	.st0{fill:#FFFFFF;}
</style>
<g>
	<path class="st0" d="M24.2,48.1C11.4,48.1,1,37.7,1,24.9C1,12.1,11.4,1.6,24.2,1.6c12.8,0,23.3,10.4,23.3,23.3
		C47.5,37.7,37.1,48.1,24.2,48.1z M24.2,4.6C13.1,4.6,4,13.7,4,24.9c0,11.2,9.1,20.3,20.3,20.3c11.2,0,20.3-9.1,20.3-20.3
		C44.5,13.7,35.4,4.6,24.2,4.6z"/>
</g>
<g>
	<path class="st0" d="M24.3,42.7c-9.8,0-17.8-8-17.8-17.8s8-17.8,17.8-17.8s17.8,8,17.8,17.8S34.1,42.7,24.3,42.7z M24.3,9.1
		c-8.7,0-15.8,7.1-15.8,15.8s7.1,15.8,15.8,15.8s15.8-7.1,15.8-15.8S33,9.1,24.3,9.1z"/>
</g>
<g>
	<path class="st0" d="M24.3,37.6c-0.3,0-0.5-0.1-0.7-0.3c-0.2-0.2-5.1-5.6-5.1-12.4s4.9-12.2,5.1-12.4c0.2-0.2,0.5-0.3,0.7-0.3l0,0
		c0.3,0,0.5,0.1,0.7,0.3c0.2,0.2,5.1,5.6,5.1,12.4S25.2,37.1,25,37.3C24.8,37.5,24.6,37.6,24.3,37.6z M24.3,14.8
		c-1.3,1.7-3.8,5.6-3.8,10.1c0,4.5,2.5,8.4,3.8,10.1c1.3-1.7,3.8-5.6,3.8-10.1C28.1,20.4,25.6,16.5,24.3,14.8z"/>
</g>
<g>
	<rect x="42.4" y="38.1" transform="matrix(0.7071 -0.7071 0.7071 0.7071 -17.7261 43.6965)" class="st0" width="3" height="10.3"/>
</g>
<g>
	<ellipse class="st0" cx="18.9" cy="22.9" rx="4.3" ry="2"/>
	<path class="st0" d="M18.9,25.9c-3.1,0-5.3-1.3-5.3-3s2.2-3,5.3-3s5.3,1.3,5.3,3S22,25.9,18.9,25.9z M18.9,21.9c-2,0-3.3,0.7-3.3,1
		c0.1,0.3,1.3,1,3.3,1c2,0,3.2-0.7,3.3-1C22.2,22.6,20.9,21.9,18.9,21.9z"/>
</g>
</svg>
